<?xml version="1.0" encoding="UTF-8" standalone="no"?>
<!-- Created with Inkscape (http://www.inkscape.org/) -->

<svg
   xmlns:dc="http://purl.org/dc/elements/1.1/"
   xmlns:cc="http://creativecommons.org/ns#"
   xmlns:rdf="http://www.w3.org/1999/02/22-rdf-syntax-ns#"
   xmlns:svg="http://www.w3.org/2000/svg"
   xmlns="http://www.w3.org/2000/svg"
   xmlns:sodipodi="http://sodipodi.sourceforge.net/DTD/sodipodi-0.dtd"
   xmlns:inkscape="http://www.inkscape.org/namespaces/inkscape"
   width="1052.3622"
   height="744.09448"
   id="svg6467"
   version="1.1"
   inkscape:version="0.48+devel r9772"
   sodipodi:docname="breakout.svg">
  <defs
     id="defs6469" />
  <sodipodi:namedview
     id="base"
     pagecolor="#ffffff"
     bordercolor="#666666"
     borderopacity="1.0"
     inkscape:pageopacity="0.0"
     inkscape:pageshadow="2"
     inkscape:zoom="0.93536509"
     inkscape:cx="532.84449"
     inkscape:cy="372.04724"
     inkscape:document-units="px"
     inkscape:current-layer="layer1"
     showgrid="false"
     inkscape:window-width="1440"
     inkscape:window-height="851"
     inkscape:window-x="0"
     inkscape:window-y="1"
     inkscape:window-maximized="1" />
  <metadata
     id="metadata6472">
    <rdf:RDF>
      <cc:Work
         rdf:about="">
        <dc:format>image/svg+xml</dc:format>
        <dc:type
           rdf:resource="http://purl.org/dc/dcmitype/StillImage" />
        <dc:title></dc:title>
      </cc:Work>
    </rdf:RDF>
  </metadata>
  <g
     inkscape:label="Layer 1"
     inkscape:groupmode="layer"
     id="layer1"
     transform="translate(0,-308.2677)">
    <g
       id="g7750">
      <rect
         y="313.11053"
         x="7.7124882"
         height="735.47797"
         width="1036.9373"
         id="rect7523"
         style="color:#000000;fill:#000000;stroke:none;stroke-width:1.02948606px;marker:none;visibility:visible;display:inline;overflow:visible;enable-background:accumulate" />
      <g
         transform="matrix(1.061208,0,0,1.061208,-8.1867006,-34.83348)"
         id="g7578">
        <g
           id="g7511"
           transform="translate(-5.8765659,-112.97656)">
          <rect
             y="722.00995"
             x="397.70566"
             height="13.898316"
             width="523.85962"
             id="rect7446"
             style="color:#000000;fill:#48a048;fill-opacity:1;stroke:none;stroke-width:1px;marker:none;visibility:visible;display:inline;overflow:visible;enable-background:accumulate" />
          <path
             id="rect7448"
             transform="translate(0,308.2677)"
             d="m 397.71875,427.625 0,13.90625 261.90625,0 0,-13.90625 -261.90625,0 z m 333.53125,0 0,13.90625 190.3125,0 0,-13.90625 -190.3125,0 z"
             style="color:#000000;fill:#4248c8;fill-opacity:1;stroke:none;stroke-width:1px;marker:none;visibility:visible;display:inline;overflow:visible;enable-background:accumulate"
             inkscape:connector-curvature="0" />
          <rect
             style="color:#000000;fill:#c84848;fill-opacity:1;stroke:none;stroke-width:1px;marker:none;visibility:visible;display:inline;overflow:visible;enable-background:accumulate"
             id="rect7436"
             width="824.2771"
             height="13.898316"
             x="97.288193"
             y="666.41669" />
          <rect
             y="680.315"
             x="97.288193"
             height="13.898316"
             width="824.2771"
             id="rect7438"
             style="color:#000000;fill:#c66c3a;fill-opacity:1;stroke:none;stroke-width:1px;marker:none;visibility:visible;display:inline;overflow:visible;enable-background:accumulate" />
          <rect
             style="color:#000000;fill:#b47a30;fill-opacity:1;stroke:none;stroke-width:1px;marker:none;visibility:visible;display:inline;overflow:visible;enable-background:accumulate"
             id="rect7440"
             width="824.2771"
             height="13.898316"
             x="97.288193"
             y="694.21332" />
          <rect
             y="708.11163"
             x="97.288193"
             height="13.898316"
             width="824.2771"
             id="rect7442"
             style="color:#000000;fill:#a2a22a;fill-opacity:1;stroke:none;stroke-width:1px;marker:none;visibility:visible;display:inline;overflow:visible;enable-background:accumulate" />
          <rect
             style="color:#000000;fill:#48a048;fill-opacity:1;stroke:none;stroke-width:1px;marker:none;visibility:visible;display:inline;overflow:visible;enable-background:accumulate"
             id="rect7444"
             width="266.20624"
             height="13.898316"
             x="97.288193"
             y="722.00995" />
          <path
             id="rect7450"
             transform="translate(0,308.2677)"
             d="m 97.28125,427.625 0,13.90625 79.125,0 0,-13.90625 -79.125,0 z m 113.34375,0 0,13.90625 53.4375,0 0,-13.90625 -53.4375,0 z m 87.65625,0 0,13.90625 65.21875,0 0,-13.90625 -65.21875,0 z"
             style="color:#000000;fill:#4248c8;fill-opacity:1;stroke:none;stroke-width:1px;marker:none;visibility:visible;display:inline;overflow:visible;enable-background:accumulate"
             inkscape:connector-curvature="0" />
        </g>
        <g
           id="g7456"
           transform="translate(-10.690996,-467.91818)">
          <g
             transform="translate(0,471.47226)"
             id="g7452">
            <rect
               style="color:#000000;fill:#999999;stroke:none;stroke-width:1px;marker:none;visibility:visible;display:inline;overflow:visible;enable-background:accumulate"
               id="rect7425"
               width="898.04504"
               height="44.902252"
               x="65.215179"
               y="437.6427" />
            <path
               style="color:#000000;fill:#999999;stroke:none;stroke-width:1px;marker:none;visibility:visible;display:inline;overflow:visible;enable-background:accumulate"
               d="m 65.215179,437.6427 0,460.78125 44.906251,0 0,-460.78125 -44.906251,0 z"
               id="rect7427"
               inkscape:connector-curvature="0" />
          </g>
          <path
             inkscape:connector-curvature="0"
             style="color:#000000;fill:#999999;stroke:none;stroke-width:1px;marker:none;visibility:visible;display:inline;overflow:visible;enable-background:accumulate"
             d="m 918.35397,909.11496 0,460.78124 44.90625,0 0,-460.78124 -44.90625,0 z"
             id="path7432" />
        </g>
        <rect
           style="color:#000000;fill:#c84848;fill-opacity:1;stroke:none;stroke-width:1px;marker:none;visibility:visible;display:inline;overflow:visible;enable-background:accumulate"
           id="rect7434"
           width="89.804504"
           height="13.898316"
           x="365.63266"
           y="862.4104" />
        <rect
           y="632.48492"
           x="369.22705"
           height="9.8698187"
           width="9.4836645"
           id="rect7521"
           style="color:#000000;fill:#ffffff;fill-opacity:1;stroke:none;stroke-width:1px;marker:none;visibility:visible;display:inline;overflow:visible;enable-background:accumulate" />
      </g>
      <g
         transform="matrix(1.061208,0,0,1.061208,18.457696,-30.588648)"
         id="g7627">
        <g
           transform="translate(0,308.80223)"
           style="font-size:60px;font-style:normal;font-variant:normal;font-weight:normal;font-stretch:normal;text-align:start;line-height:125%;letter-spacing:0px;word-spacing:0px;writing-mode:lr-tb;text-anchor:start;fill:#999999;fill-opacity:1;stroke:none;font-family:NES2;-inkscape-font-specification:NES2"
           id="text7596">
          <path
             d="m 131.02192,94.064621 c 1.0156,7e-6 1.8945,-0.351555 2.63672,-1.054688 0.74216,-0.742178 1.11325,-1.640614 1.11328,-2.695312 l 0,-15 c -3e-5,-1.015598 -0.37112,-1.894503 -1.11328,-2.636719 -0.74222,-0.742158 -1.62112,-1.113251 -2.63672,-1.113281 l -15,0 c -1.0547,3e-5 -1.95314,0.371123 -2.69531,1.113281 -0.70314,0.742216 -1.0547,1.621121 -1.05469,2.636719 l 0,15 c -10e-6,1.054698 0.35155,1.953134 1.05469,2.695312 0.74217,0.703133 1.64061,1.054695 2.69531,1.054688 l 15,0 m -18.75,7.499999 c -2.10938,0 -3.88672,-0.72265 -5.33203,-2.167968 -1.44532,-1.484371 -2.16797,-3.261713 -2.16797,-5.332031 l 0,-22.5 c 0,-2.07028 0.72265,-3.828091 2.16797,-5.273438 1.48437,-1.484338 3.26171,-2.226525 5.33203,-2.226562 l 22.5,0 c 2.03122,3.7e-5 3.78903,0.742224 5.27344,2.226562 1.48433,1.445347 2.22652,3.203158 2.22656,5.273438 l 0,22.5 c -4e-5,2.070318 -0.74223,3.84766 -2.22656,5.332031 -1.44535,1.445318 -3.20316,2.167968 -5.27344,2.167968 l -22.5,0"
             id="path7621"
             inkscape:connector-curvature="0" />
          <path
             d="m 184.45942,94.064621 c 1.0156,7e-6 1.8945,-0.351555 2.63672,-1.054688 0.74216,-0.742178 1.11325,-1.640614 1.11328,-2.695312 l 0,-15 c -3e-5,-1.015598 -0.37112,-1.894503 -1.11328,-2.636719 -0.74222,-0.742158 -1.62112,-1.113251 -2.63672,-1.113281 l -15,0 c -1.0547,3e-5 -1.95314,0.371123 -2.69531,1.113281 -0.70314,0.742216 -1.0547,1.621121 -1.05469,2.636719 l 0,15 c -1e-5,1.054698 0.35155,1.953134 1.05469,2.695312 0.74217,0.703133 1.64061,1.054695 2.69531,1.054688 l 15,0 m -18.75,7.499999 c -2.10938,0 -3.88672,-0.72265 -5.33203,-2.167968 -1.44532,-1.484371 -2.16797,-3.261713 -2.16797,-5.332031 l 0,-22.5 c 0,-2.07028 0.72265,-3.828091 2.16797,-5.273438 1.48437,-1.484338 3.26171,-2.226525 5.33203,-2.226562 l 22.5,0 c 2.03122,3.7e-5 3.78903,0.742224 5.27344,2.226562 1.48433,1.445347 2.22652,3.203158 2.22656,5.273438 l 0,22.5 c -4e-5,2.070318 -0.74223,3.84766 -2.22656,5.332031 -1.44535,1.445318 -3.20316,2.167968 -5.27344,2.167968 l -22.5,0"
             id="path7623"
             inkscape:connector-curvature="0" />
          <path
             d="m 237.89692,94.064621 c 1.0156,7e-6 1.8945,-0.351555 2.63672,-1.054688 0.74216,-0.742178 1.11325,-1.640614 1.11328,-2.695312 -3e-5,-1.015613 -0.37112,-1.894518 -1.11328,-2.636719 -0.74222,-0.742173 -1.62112,-1.113266 -2.63672,-1.113281 l -15,0 c -1.0547,1.5e-5 -1.95314,0.371108 -2.69531,1.113281 -0.70314,0.742201 -1.0547,1.621106 -1.05469,2.636719 -1e-5,1.054698 0.35155,1.953134 1.05469,2.695312 0.74217,0.703133 1.64061,1.054695 2.69531,1.054688 l 15,0 m -18.75,7.499999 c -2.10938,0 -3.88672,-0.72265 -5.33203,-2.167968 -1.44532,-1.484371 -2.16797,-3.261713 -2.16797,-5.332031 l 0,-22.5 c 0,-2.07028 0.72265,-3.828091 2.16797,-5.273438 1.48437,-1.484338 3.26171,-2.226525 5.33203,-2.226562 l 30,0 0,7.5 -26.25,0 c -1.0547,3e-5 -1.95314,0.371123 -2.69531,1.113281 -0.70314,0.742216 -1.0547,1.621121 -1.05469,2.636719 -1e-5,1.054713 0.35155,1.953149 1.05469,2.695312 0.74217,0.703148 1.64061,1.05471 2.69531,1.054688 l 18.75,0 c 2.07028,2.2e-5 3.82809,0.742209 5.27344,2.226562 1.48433,1.484394 2.22652,3.242205 2.22656,5.273438 l 0,7.5 c -4e-5,2.10938 -0.74223,3.886722 -2.22656,5.332031 -1.48441,1.445318 -3.24222,2.167968 -5.27344,2.167968 l -22.5,0"
             id="path7625"
             inkscape:connector-curvature="0" />
        </g>
        <g
           style="font-size:60px;font-style:normal;font-variant:normal;font-weight:normal;font-stretch:normal;text-align:start;line-height:125%;letter-spacing:0px;word-spacing:0px;writing-mode:lr-tb;text-anchor:start;fill:#999999;fill-opacity:1;stroke:none;font-family:NES2;-inkscape-font-specification:NES2"
           id="text7602"
           transform="translate(22.451127,0.5345431)">
          <path
             d="m 483.23376,409.83231 0,-15 c 0,-2.03124 0.72266,-3.78905 2.16797,-5.27344 1.44531,-1.48435 3.22265,-2.22654 5.33203,-2.22656 l 18.75,0 c 1.0156,2e-5 1.89451,-0.35154 2.63672,-1.05469 0.74216,-0.74216 1.11325,-1.6406 1.11328,-2.69531 -3e-5,-1.0156 -0.37112,-1.89451 -1.11328,-2.63672 -0.74221,-0.74216 -1.62112,-1.11325 -2.63672,-1.11328 l -26.25,0 0,-7.5 30,0 c 2.03122,3e-5 3.78903,0.74222 5.27344,2.22656 1.48434,1.44534 2.22653,3.20316 2.22656,5.27344 l 0,7.5 c -3e-5,2.07033 -0.74222,3.84767 -2.22656,5.33203 -1.44534,1.44533 -3.20315,2.16798 -5.27344,2.16797 l -18.75,0 c -1.05469,10e-6 -1.95313,0.3711 -2.69531,1.11328 -0.70313,0.7422 -1.05469,1.6211 -1.05469,2.63672 0,1.05469 0.35156,1.95313 1.05469,2.69531 0.74218,0.70313 1.64062,1.05469 2.69531,1.05469 l 26.25,0 0,7.5 -37.5,0"
             id="path7618"
             inkscape:connector-curvature="0" />
        </g>
        <g
           style="font-size:60px;font-style:normal;font-variant:normal;font-weight:normal;font-stretch:normal;text-align:start;line-height:125%;letter-spacing:0px;word-spacing:0px;writing-mode:lr-tb;text-anchor:start;fill:#999999;fill-opacity:1;stroke:none;font-family:NES2;-inkscape-font-specification:NES2"
           id="text7608"
           transform="translate(180.67811,-3.7418469)">
          <path
             d="m 663.92816,414.1087 0,-26.25 c -1e-5,-1.01559 -0.3711,-1.8945 -1.11328,-2.63672 -0.74219,-0.74215 -1.6211,-1.11325 -2.63672,-1.11328 l -3.75,0 0,-7.5 7.5,0 c 2.0703,4e-5 3.82812,0.74223 5.27344,2.22657 1.48436,1.4844 2.22655,3.24222 2.22656,5.27343 l 0,30 -7.5,0"
             id="path7615"
             inkscape:connector-curvature="0" />
        </g>
      </g>
      <g
         id="text7637"
         style="font-size:60px;font-style:normal;font-variant:normal;font-weight:normal;font-stretch:normal;text-align:start;line-height:125%;letter-spacing:0px;word-spacing:0px;writing-mode:lr-tb;text-anchor:start;fill:#999999;fill-opacity:1;stroke:none;font-family:NES2;-inkscape-font-specification:NES2"
         transform="matrix(1.061208,0,0,1.061208,10.772056,298.66992)">
        <path
           inkscape:connector-curvature="0"
           id="path7644"
           d="m 169.50957,649.99725 c 1.01559,10e-6 1.8945,-0.35155 2.63672,-1.05468 0.74215,-0.74218 1.11325,-1.64062 1.11328,-2.69532 -3e-5,-1.01561 -0.37113,-1.89451 -1.11328,-2.63672 -0.74222,-0.74217 -1.62113,-1.11326 -2.63672,-1.11328 l -18.75,0 0,7.5 18.75,0 m 0,-15 c 1.01559,3e-5 1.8945,-0.35154 2.63672,-1.05468 0.74215,-0.74217 1.11325,-1.6406 1.11328,-2.69532 -3e-5,-1.01559 -0.37113,-1.8945 -1.11328,-2.63672 -0.74222,-0.74215 -1.62113,-1.11325 -2.63672,-1.11328 l -18.75,0 0,7.5 18.75,0 m -26.25,22.5 0,-37.5 30,0 c 2.07028,4e-5 3.82809,0.74223 5.27343,2.22657 1.48434,1.4844 2.22653,3.24222 2.22657,5.27343 l 0,7.5 c -4e-5,1.05471 -0.37113,1.95315 -1.11328,2.69532 -0.74223,0.70314 -1.62113,1.0547 -2.63672,1.05468 1.01559,2e-5 1.89449,0.37112 2.63672,1.11328 0.74215,0.74221 1.11324,1.62111 1.11328,2.63672 l 0,7.5 c -4e-5,2.10938 -0.74223,3.88673 -2.22657,5.33203 -1.4844,1.44532 -3.24221,2.16797 -5.27343,2.16797 l -30,0" />
        <path
           inkscape:connector-curvature="0"
           id="path7646"
           d="m 222.94707,634.99725 c 1.01559,3e-5 1.8945,-0.35154 2.63672,-1.05468 0.74215,-0.74217 1.11325,-1.6406 1.11328,-2.69532 -3e-5,-1.01559 -0.37113,-1.8945 -1.11328,-2.63672 -0.74222,-0.74215 -1.62113,-1.11325 -2.63672,-1.11328 l -18.75,0 0,7.5 18.75,0 m -26.25,22.5 0,-37.5 30,0 c 2.07028,4e-5 3.82809,0.74223 5.27343,2.22657 1.48434,1.4844 2.22653,3.24222 2.22657,5.27343 l 0,7.5 c -4e-5,1.05471 -0.37113,1.95315 -1.11328,2.69532 -0.74223,0.70314 -1.62113,1.0547 -2.63672,1.05468 1.01559,2e-5 1.89449,0.37112 2.63672,1.11328 0.74215,0.74221 1.11324,1.62111 1.11328,2.63672 l 0,15 -7.5,0 0,-11.25 c -3e-5,-1.01561 -0.37113,-1.89451 -1.11328,-2.63672 -0.74222,-0.74217 -1.62113,-1.11326 -2.63672,-1.11328 l -18.75,0 0,15 -7.5,0" />
        <path
           inkscape:connector-curvature="0"
           id="path7648"
           d="m 257.63457,657.49725 c -2.10938,0 -3.88673,-0.72265 -5.33203,-2.16797 -1.44532,-1.48437 -2.16797,-3.26171 -2.16797,-5.33203 l 0,-30 37.5,0 0,7.5 -26.25,0 c -1.0547,3e-5 -1.95314,0.37113 -2.69532,1.11328 -0.70313,0.74222 -1.05469,1.62113 -1.05468,2.63672 -10e-6,1.05472 0.35155,1.95315 1.05468,2.69532 0.74218,0.70314 1.64062,1.05471 2.69532,1.05468 l 26.25,0 0,7.5 -26.25,0 c -1.0547,2e-5 -1.95314,0.37111 -2.69532,1.11328 -0.70313,0.74221 -1.05469,1.62111 -1.05468,2.63672 -10e-6,1.0547 0.35155,1.95314 1.05468,2.69532 0.74218,0.70313 1.64062,1.05469 2.69532,1.05468 l 26.25,0 0,7.5 -30,0" />
        <path
           inkscape:connector-curvature="0"
           id="path7650"
           d="m 333.57207,634.99725 0,-3.75 c -3e-5,-1.01559 -0.37113,-1.8945 -1.11328,-2.63672 -0.74222,-0.74215 -1.62113,-1.11325 -2.63672,-1.11328 l -15,0 c -1.0547,3e-5 -1.95314,0.37113 -2.69532,1.11328 -0.70313,0.74222 -1.05469,1.62113 -1.05468,2.63672 l 0,3.75 22.5,0 m -30,22.5 0,-30 c 0,-2.07028 0.72265,-3.82809 2.16797,-5.27343 1.48437,-1.48434 3.26171,-2.22653 5.33203,-2.22657 l 22.5,0 c 2.07028,4e-5 3.82809,0.74223 5.27343,2.22657 1.48434,1.4844 2.22653,3.24222 2.22657,5.27343 l 0,30 -7.5,0 0,-15 -22.5,0 0,15 -7.5,0" />
        <path
           inkscape:connector-curvature="0"
           id="path7652"
           d="m 357.00957,657.49725 0,-37.5 7.5,0 0,15 18.75,0 c 1.01559,3e-5 1.8945,-0.35154 2.63672,-1.05468 0.74215,-0.74217 1.11325,-1.6406 1.11328,-2.69532 l 0,-11.25 7.5,0 0,15 c -4e-5,1.05471 -0.37113,1.95315 -1.11328,2.69532 -0.74223,0.70314 -1.62113,1.0547 -2.63672,1.05468 1.01559,2e-5 1.89449,0.37112 2.63672,1.11328 0.74215,0.74221 1.11324,1.62111 1.11328,2.63672 l 0,15 -7.5,0 0,-11.25 c -3e-5,-1.01561 -0.37113,-1.89451 -1.11328,-2.63672 -0.74222,-0.74217 -1.62113,-1.11326 -2.63672,-1.11328 l -18.75,0 0,15 -7.5,0" />
        <path
           inkscape:connector-curvature="0"
           id="path7654"
           d="m 436.69707,649.99725 c 1.01559,10e-6 1.8945,-0.35155 2.63672,-1.05468 0.74215,-0.74218 1.11325,-1.64062 1.11328,-2.69532 l 0,-15 c -3e-5,-1.01559 -0.37113,-1.8945 -1.11328,-2.63672 -0.74222,-0.74215 -1.62113,-1.11325 -2.63672,-1.11328 l -15,0 c -1.0547,3e-5 -1.95314,0.37113 -2.69532,1.11328 -0.70313,0.74222 -1.05469,1.62113 -1.05468,2.63672 l 0,15 c -10e-6,1.0547 0.35155,1.95314 1.05468,2.69532 0.74218,0.70313 1.64062,1.05469 2.69532,1.05468 l 15,0 m -18.75,7.5 c -2.10938,0 -3.88673,-0.72265 -5.33203,-2.16797 -1.44532,-1.48437 -2.16797,-3.26171 -2.16797,-5.33203 l 0,-22.5 c 0,-2.07028 0.72265,-3.82809 2.16797,-5.27343 1.48437,-1.48434 3.26171,-2.22653 5.33203,-2.22657 l 22.5,0 c 2.03122,4e-5 3.78903,0.74223 5.27343,2.22657 1.48434,1.44534 2.22653,3.20315 2.22657,5.27343 l 0,22.5 c -4e-5,2.07032 -0.74223,3.84766 -2.22657,5.33203 -1.44534,1.44532 -3.20315,2.16797 -5.27343,2.16797 l -22.5,0" />
        <path
           inkscape:connector-curvature="0"
           id="path7656"
           d="m 471.38457,657.49725 c -2.10938,0 -3.88673,-0.72265 -5.33203,-2.16797 -1.44532,-1.48437 -2.16797,-3.26171 -2.16797,-5.33203 l 0,-30 7.5,0 0,26.25 c -10e-6,1.0547 0.35155,1.95314 1.05468,2.69532 0.74218,0.70313 1.64062,1.05469 2.69532,1.05468 l 15,0 c 1.01559,10e-6 1.8945,-0.35155 2.63672,-1.05468 0.74215,-0.74218 1.11325,-1.64062 1.11328,-2.69532 l 0,-26.25 7.5,0 0,30 c -4e-5,2.07032 -0.74223,3.84766 -2.22657,5.33203 -1.44534,1.44532 -3.20315,2.16797 -5.27343,2.16797 l -22.5,0" />
        <path
           inkscape:connector-curvature="0"
           id="path7658"
           d="m 532.32207,657.49725 0,-30 -15,0 0,-7.5 37.5,0 0,7.5 -15,0 0,30 -7.5,0" />
        <path
           inkscape:connector-curvature="0"
           id="path7660"
           d="m 660.29082,657.49725 0,-26.25 c -1e-5,-1.01559 -0.3711,-1.8945 -1.11328,-2.63672 -0.7422,-0.74215 -1.6211,-1.11325 -2.63672,-1.11328 l -3.75,0 0,-7.5 7.5,0 c 2.0703,4e-5 3.82811,0.74223 5.27343,2.22657 1.48437,1.4844 2.22655,3.24222 2.22657,5.27343 l 0,30 -7.5,0" />
        <path
           inkscape:connector-curvature="0"
           id="path7662"
           d="m 709.97832,634.99725 c 1.01559,3e-5 1.8945,-0.35154 2.63672,-1.05468 0.74215,-0.74217 1.11325,-1.6406 1.11328,-2.69532 -3e-5,-1.01559 -0.37113,-1.8945 -1.11328,-2.63672 -0.74222,-0.74215 -1.62113,-1.11325 -2.63672,-1.11328 l -15,0 c -1.0547,3e-5 -1.95314,0.37113 -2.69532,1.11328 -0.70313,0.74222 -1.05469,1.62113 -1.05468,2.63672 -1e-5,1.05472 0.35155,1.95315 1.05468,2.69532 0.74218,0.70314 1.64062,1.05471 2.69532,1.05468 l 15,0 m -26.25,22.5 0,-7.5 26.25,0 c 1.01559,10e-6 1.8945,-0.35155 2.63672,-1.05468 0.74215,-0.74218 1.11325,-1.64062 1.11328,-2.69532 -3e-5,-1.01561 -0.37113,-1.89451 -1.11328,-2.63672 -0.74222,-0.74217 -1.62113,-1.11326 -2.63672,-1.11328 l -18.75,0 c -2.10938,2e-5 -3.88673,-0.72264 -5.33203,-2.16797 -1.44532,-1.48435 -2.16797,-3.26169 -2.16797,-5.33203 l 0,-7.5 c 0,-2.07028 0.72265,-3.82809 2.16797,-5.27343 1.48437,-1.48434 3.26171,-2.22653 5.33203,-2.22657 l 22.5,0 c 2.07028,4e-5 3.82809,0.74223 5.27343,2.22657 1.48434,1.4844 2.22653,3.24222 2.22657,5.27343 l 0,22.5 c -4e-5,2.10938 -0.74223,3.88673 -2.22657,5.33203 -1.4844,1.44532 -3.24221,2.16797 -5.27343,2.16797 l -30,0" />
        <path
           inkscape:connector-curvature="0"
           id="path7664"
           d="m 767.16582,657.49725 0,-26.25 c -3e-5,-1.01559 -0.37113,-1.8945 -1.11328,-2.63672 -0.74222,-0.74215 -1.62113,-1.11325 -2.63672,-1.11328 l -26.25,0 0,-7.5 30,0 c 2.07028,4e-5 3.82809,0.74223 5.27343,2.22657 1.48434,1.4844 2.22653,3.24222 2.22657,5.27343 l 0,30 -7.5,0" />
        <path
           inkscape:connector-curvature="0"
           id="path7666"
           d="m 816.85332,649.99725 c 1.01559,10e-6 1.8945,-0.35155 2.63672,-1.05468 0.74215,-0.74218 1.11325,-1.64062 1.11328,-2.69532 -3e-5,-1.01561 -0.37113,-1.89451 -1.11328,-2.63672 -0.74222,-0.74217 -1.62113,-1.11326 -2.63672,-1.11328 l -15,0 c -1.0547,2e-5 -1.95314,0.37111 -2.69532,1.11328 -0.70313,0.74221 -1.05469,1.62111 -1.05468,2.63672 -1e-5,1.0547 0.35155,1.95314 1.05468,2.69532 0.74218,0.70313 1.64062,1.05469 2.69532,1.05468 l 15,0 m -18.75,7.5 c -2.10938,0 -3.88673,-0.72265 -5.33203,-2.16797 -1.44532,-1.48437 -2.16797,-3.26171 -2.16797,-5.33203 l 0,-22.5 c 0,-2.07028 0.72265,-3.82809 2.16797,-5.27343 1.48437,-1.48434 3.26171,-2.22653 5.33203,-2.22657 l 30,0 0,7.5 -26.25,0 c -1.0547,3e-5 -1.95314,0.37113 -2.69532,1.11328 -0.70313,0.74222 -1.05469,1.62113 -1.05468,2.63672 -1e-5,1.05472 0.35155,1.95315 1.05468,2.69532 0.74218,0.70314 1.64062,1.05471 2.69532,1.05468 l 18.75,0 c 2.07028,3e-5 3.82809,0.74221 5.27343,2.22657 1.48434,1.48439 2.22653,3.2422 2.22657,5.27343 l 0,7.5 c -4e-5,2.10938 -0.74223,3.88673 -2.22657,5.33203 -1.4844,1.44532 -3.24221,2.16797 -5.27343,2.16797 l -22.5,0" />
      </g>
    </g>
  </g>
</svg>
