<svg xmlns="http://www.w3.org/2000/svg" width="1052.362" height="744.094"><path style="color:#000;fill:#000;stroke:none;stroke-width:1.02948606px;marker:none;visibility:visible;display:inline;overflow:visible;enable-background:accumulate" d="M7.712 313.111h1036.937v735.478H7.712z" transform="translate(0 -308.268)"/><path style="color:#000;fill:#48a048;fill-opacity:1;stroke:none;stroke-width:1px;marker:none;visibility:visible;display:inline;overflow:visible;enable-background:accumulate" d="M397.706 722.01h523.86v13.898h-523.86z" transform="matrix(1.0612 0 0 1.0612 -14.423 -462.993)"/><path transform="matrix(1.0612 0 0 1.0612 -14.423 -135.857)" d="M397.719 427.625v13.906h261.906v-13.906H397.719zm333.531 0v13.906h190.313v-13.906H731.25z" style="color:#000;fill:#4248c8;fill-opacity:1;stroke:none;stroke-width:1px;marker:none;visibility:visible;display:inline;overflow:visible;enable-background:accumulate"/><path style="color:#000;fill:#c84848;fill-opacity:1;stroke:none;stroke-width:1px;marker:none;visibility:visible;display:inline;overflow:visible;enable-background:accumulate" d="M97.288 666.417h824.277v13.898H97.288z" transform="matrix(1.0612 0 0 1.0612 -14.423 -462.993)"/><path style="color:#000;fill:#c66c3a;fill-opacity:1;stroke:none;stroke-width:1px;marker:none;visibility:visible;display:inline;overflow:visible;enable-background:accumulate" d="M97.288 680.315h824.277v13.898H97.288z" transform="matrix(1.0612 0 0 1.0612 -14.423 -462.993)"/><path style="color:#000;fill:#b47a30;fill-opacity:1;stroke:none;stroke-width:1px;marker:none;visibility:visible;display:inline;overflow:visible;enable-background:accumulate" d="M97.288 694.213h824.277v13.898H97.288z" transform="matrix(1.0612 0 0 1.0612 -14.423 -462.993)"/><path style="color:#000;fill:#a2a22a;fill-opacity:1;stroke:none;stroke-width:1px;marker:none;visibility:visible;display:inline;overflow:visible;enable-background:accumulate" d="M97.288 708.112h824.277v13.898H97.288z" transform="matrix(1.0612 0 0 1.0612 -14.423 -462.993)"/><path style="color:#000;fill:#48a048;fill-opacity:1;stroke:none;stroke-width:1px;marker:none;visibility:visible;display:inline;overflow:visible;enable-background:accumulate" d="M97.288 722.01h266.206v13.898H97.288z" transform="matrix(1.0612 0 0 1.0612 -14.423 -462.993)"/><path transform="matrix(1.0612 0 0 1.0612 -14.423 -135.857)" d="M97.281 427.625v13.906h79.125v-13.906H97.281zm113.344 0v13.906h53.438v-13.906h-53.438zm87.656 0v13.906H363.5v-13.906h-65.219z" style="color:#000;fill:#4248c8;fill-opacity:1;stroke:none;stroke-width:1px;marker:none;visibility:visible;display:inline;overflow:visible;enable-background:accumulate"/><g><path style="color:#000;fill:#999;stroke:none;stroke-width:1px;marker:none;visibility:visible;display:inline;overflow:visible;enable-background:accumulate" d="M65.215 437.643H963.26v44.902H65.215z" transform="matrix(1.0612 0 0 1.0612 -19.532 -339.33)"/><path style="color:#000;fill:#999;stroke:none;stroke-width:1px;marker:none;visibility:visible;display:inline;overflow:visible;enable-background:accumulate" d="M65.215 437.643v460.781h44.906V437.643H65.215z" transform="matrix(1.0612 0 0 1.0612 -19.532 -339.33)"/><path style="color:#000;fill:#999;stroke:none;stroke-width:1px;marker:none;visibility:visible;display:inline;overflow:visible;enable-background:accumulate" d="M918.354 909.115v460.781h44.906V909.115h-44.906z" transform="matrix(1.0612 0 0 1.0612 -19.532 -839.66)"/></g><path style="color:#000;fill:#c84848;fill-opacity:1;stroke:none;stroke-width:1px;marker:none;visibility:visible;display:inline;overflow:visible;enable-background:accumulate" d="M365.633 862.41h89.805v13.898h-89.805z" transform="matrix(1.0612 0 0 1.0612 -8.187 -343.101)"/><path style="color:#000;fill:#fff;fill-opacity:1;stroke:none;stroke-width:1px;marker:none;visibility:visible;display:inline;overflow:visible;enable-background:accumulate" d="M369.227 632.485h9.484v9.87h-9.484z" transform="matrix(1.0612 0 0 1.0612 -8.187 -343.101)"/><g><g style="font-size:60px;font-style:normal;font-variant:normal;font-weight:400;font-stretch:normal;text-align:start;line-height:125%;letter-spacing:0;word-spacing:0;writing-mode:lr-tb;text-anchor:start;fill:#999;fill-opacity:1;stroke:none;font-family:NES2;-inkscape-font-specification:NES2"><path d="M157.5 88.67c1.077 0 2.01-.374 2.797-1.12.788-.788 1.182-1.741 1.182-2.86V68.772c0-1.078-.394-2.01-1.182-2.799-.787-.787-1.72-1.181-2.798-1.181h-15.918c-1.12 0-2.073.394-2.86 1.181-.746.788-1.12 1.72-1.12 2.799V84.69c0 1.119.374 2.072 1.12 2.86.787.746 1.74 1.12 2.86 1.12H157.5m-19.897 7.958c-2.239 0-4.125-.767-5.659-2.3-1.534-1.576-2.3-3.462-2.3-5.659V64.792c0-2.197.766-4.062 2.3-5.596 1.575-1.575 3.462-2.363 5.659-2.363h23.877c2.155 0 4.02.788 5.596 2.363 1.575 1.534 2.363 3.399 2.363 5.596v23.877c0 2.197-.788 4.083-2.363 5.659-1.534 1.533-3.4 2.3-5.596 2.3h-23.877M214.208 88.67c1.077 0 2.01-.374 2.798-1.12.787-.788 1.181-1.741 1.181-2.86V68.772c0-1.078-.394-2.01-1.181-2.799-.788-.787-1.72-1.181-2.798-1.181h-15.919c-1.119 0-2.072.394-2.86 1.181-.746.788-1.12 1.72-1.12 2.799V84.69c0 1.119.374 2.072 1.12 2.86.788.746 1.741 1.12 2.86 1.12h15.919m-19.898 7.958c-2.239 0-4.125-.767-5.659-2.3-1.533-1.576-2.3-3.462-2.3-5.659V64.792c0-2.197.767-4.062 2.3-5.596 1.576-1.575 3.462-2.363 5.659-2.363h23.877c2.156 0 4.021.788 5.596 2.363 1.575 1.534 2.363 3.399 2.363 5.596v23.877c0 2.197-.788 4.083-2.363 5.659-1.534 1.533-3.399 2.3-5.596 2.3H194.31M270.916 88.67c1.078 0 2.01-.374 2.798-1.12.788-.788 1.181-1.741 1.181-2.86 0-1.078-.393-2.01-1.181-2.798-.788-.788-1.72-1.182-2.798-1.182h-15.918c-1.12 0-2.073.394-2.86 1.182-.747.787-1.12 1.72-1.12 2.798 0 1.119.373 2.072 1.12 2.86.787.746 1.74 1.12 2.86 1.12h15.918m-19.898 7.958c-2.238 0-4.124-.767-5.658-2.3-1.534-1.576-2.3-3.462-2.3-5.659V64.792c0-2.197.766-4.062 2.3-5.596 1.575-1.575 3.461-2.363 5.658-2.363h31.836v7.959h-27.856c-1.12 0-2.073.394-2.86 1.181-.747.788-1.12 1.72-1.12 2.799 0 1.119.373 2.072 1.12 2.86.787.746 1.74 1.12 2.86 1.12h19.897c2.197 0 4.063.787 5.597 2.362 1.575 1.575 2.362 3.44 2.362 5.596v7.96c0 2.238-.787 4.124-2.362 5.658-1.576 1.533-3.441 2.3-5.597 2.3h-23.877"/></g><path d="M483.234 409.832v-15c0-2.03.722-3.789 2.168-5.273 1.445-1.484 3.222-2.227 5.332-2.227h18.75a3.705 3.705 0 0 0 3.75-3.75c0-1.015-.371-1.894-1.114-2.636-.742-.743-1.62-1.114-2.636-1.114h-26.25v-7.5h30c2.031 0 3.789.743 5.273 2.227 1.485 1.445 2.227 3.203 2.227 5.273v7.5c0 2.07-.742 3.848-2.227 5.332-1.445 1.446-3.203 2.168-5.273 2.168h-18.75a3.705 3.705 0 0 0-3.75 3.75c0 1.055.351 1.953 1.054 2.696.743.703 1.641 1.054 2.696 1.054h26.25v7.5h-37.5" transform="matrix(1.0612 0 0 1.0612 42.283 -338.29)" style="font-size:60px;font-style:normal;font-variant:normal;font-weight:400;font-stretch:normal;text-align:start;line-height:125%;letter-spacing:0;word-spacing:0;writing-mode:lr-tb;text-anchor:start;fill:#999;fill-opacity:1;stroke:none;font-family:NES2;-inkscape-font-specification:NES2"/><path d="M663.928 414.109v-26.25c0-1.016-.37-1.895-1.113-2.637-.742-.742-1.621-1.113-2.637-1.113h-3.75v-7.5h7.5c2.07 0 3.828.742 5.274 2.226 1.484 1.485 2.226 3.242 2.226 5.274v30h-7.5" transform="matrix(1.0612 0 0 1.0612 210.195 -342.827)" style="font-size:60px;font-style:normal;font-variant:normal;font-weight:400;font-stretch:normal;text-align:start;line-height:125%;letter-spacing:0;word-spacing:0;writing-mode:lr-tb;text-anchor:start;fill:#999;fill-opacity:1;stroke:none;font-family:NES2;-inkscape-font-specification:NES2"/></g><g style="font-size:60px;font-style:normal;font-variant:normal;font-weight:400;font-stretch:normal;text-align:start;line-height:125%;letter-spacing:0;word-spacing:0;writing-mode:lr-tb;text-anchor:start;fill:#999;fill-opacity:1;stroke:none;font-family:NES2;-inkscape-font-specification:NES2"><path d="M190.657 680.185c1.078 0 2.01-.374 2.798-1.12.788-.787 1.181-1.74 1.181-2.86 0-1.078-.393-2.01-1.18-2.798-.789-.788-1.721-1.182-2.799-1.182h-19.898v7.96h19.898m0-15.919c1.078 0 2.01-.373 2.798-1.119.788-.787 1.181-1.74 1.181-2.86 0-1.078-.393-2.01-1.18-2.798-.789-.788-1.721-1.182-2.799-1.182h-19.898v7.96h19.898M162.8 688.143v-39.796h31.836c2.197 0 4.063.788 5.597 2.363 1.575 1.575 2.363 3.44 2.363 5.596v7.96c0 1.119-.394 2.072-1.182 2.86-.788.746-1.72 1.119-2.798 1.119 1.078 0 2.01.394 2.798 1.181.788.788 1.182 1.72 1.182 2.798v7.96c0 2.238-.788 4.124-2.363 5.658-1.576 1.534-3.441 2.3-5.597 2.3H162.8M247.365 664.266c1.078 0 2.01-.373 2.798-1.119.788-.787 1.182-1.74 1.182-2.86 0-1.078-.394-2.01-1.182-2.798-.787-.788-1.72-1.182-2.798-1.182h-19.897v7.96h19.897m-27.856 23.877v-39.796h31.836c2.197 0 4.062.788 5.596 2.363 1.575 1.575 2.363 3.44 2.363 5.596v7.96c0 1.119-.394 2.072-1.182 2.86-.787.746-1.72 1.119-2.798 1.119 1.078 0 2.01.394 2.798 1.181.788.788 1.182 1.72 1.182 2.798v15.919h-7.96v-11.939c0-1.078-.393-2.01-1.18-2.798-.788-.788-1.721-1.182-2.799-1.182h-19.897v15.919h-7.96M284.176 688.144c-2.239 0-4.125-.767-5.658-2.301-1.534-1.575-2.301-3.461-2.301-5.658v-31.837h39.795v7.96h-27.857c-1.119 0-2.072.393-2.86 1.18-.746.788-1.12 1.721-1.12 2.799 0 1.12.374 2.073 1.12 2.86.788.746 1.741 1.12 2.86 1.12h27.857v7.958h-27.857c-1.119 0-2.072.394-2.86 1.182-.746.788-1.12 1.72-1.12 2.798 0 1.12.374 2.073 1.12 2.86.788.746 1.741 1.12 2.86 1.12h27.857v7.959h-31.836M364.761 664.266v-3.98c0-1.077-.393-2.01-1.181-2.797-.788-.788-1.72-1.182-2.798-1.182h-15.918c-1.12 0-2.073.394-2.86 1.182-.747.787-1.12 1.72-1.12 2.798v3.98h23.877m-31.836 23.877v-31.837c0-2.197.767-4.062 2.3-5.596 1.576-1.575 3.462-2.363 5.66-2.363h23.876c2.197 0 4.063.788 5.597 2.363 1.575 1.575 2.362 3.44 2.362 5.596v31.837h-7.959v-15.919h-23.877v15.919h-7.959M389.633 688.144v-39.796h7.96v15.918h19.897c1.078 0 2.01-.373 2.798-1.119.788-.787 1.182-1.74 1.182-2.86v-11.939h7.959v15.918c0 1.12-.394 2.073-1.182 2.86-.787.747-1.72 1.12-2.798 1.12 1.078 0 2.01.394 2.798 1.181.788.788 1.182 1.72 1.182 2.798v15.919h-7.96v-11.939c0-1.078-.393-2.01-1.18-2.798-.788-.788-1.721-1.182-2.799-1.182h-19.897v15.919h-7.96M474.198 680.185c1.078 0 2.01-.374 2.799-1.12.787-.787 1.181-1.74 1.181-2.86v-15.918c0-1.078-.394-2.01-1.181-2.798-.788-.788-1.72-1.182-2.799-1.182H458.28c-1.119 0-2.072.394-2.86 1.182-.746.787-1.12 1.72-1.12 2.798v15.918c0 1.12.374 2.073 1.12 2.86.788.746 1.741 1.12 2.86 1.12h15.918m-19.897 7.959c-2.239 0-4.125-.767-5.659-2.301-1.533-1.575-2.3-3.461-2.3-5.658v-23.878c0-2.197.767-4.062 2.3-5.596 1.576-1.575 3.462-2.363 5.659-2.363h23.877c2.156 0 4.021.788 5.596 2.363 1.575 1.534 2.363 3.4 2.363 5.596v23.878c0 2.197-.788 4.083-2.363 5.658-1.534 1.534-3.399 2.3-5.596 2.3h-23.877M511.01 688.144c-2.24 0-4.125-.767-5.66-2.301-1.533-1.575-2.3-3.461-2.3-5.658v-31.837h7.96v27.857c0 1.12.372 2.073 1.118 2.86.788.746 1.741 1.12 2.86 1.12h15.919c1.078 0 2.01-.374 2.798-1.12.787-.787 1.181-1.74 1.181-2.86v-27.857h7.96v31.837c0 2.197-.788 4.083-2.363 5.658-1.534 1.534-3.4 2.3-5.597 2.3H511.01M575.676 688.144v-31.837h-15.918v-7.959h39.796v7.96h-15.918v31.836h-7.96M711.478 688.144v-27.857c0-1.078-.394-2.01-1.181-2.798-.788-.788-1.72-1.182-2.799-1.182h-3.98v-7.959h7.96c2.197 0 4.062.788 5.596 2.363 1.575 1.575 2.363 3.44 2.363 5.596v31.837h-7.959M764.207 664.266c1.077 0 2.01-.373 2.798-1.119.787-.787 1.181-1.74 1.181-2.86 0-1.078-.394-2.01-1.181-2.798-.788-.788-1.72-1.182-2.798-1.182h-15.918c-1.12 0-2.073.394-2.86 1.182-.747.787-1.12 1.72-1.12 2.798 0 1.12.373 2.073 1.12 2.86.787.746 1.74 1.12 2.86 1.12h15.918m-27.857 23.877v-7.96h27.857c1.077 0 2.01-.373 2.798-1.119.787-.787 1.181-1.74 1.181-2.86 0-1.078-.394-2.01-1.181-2.798-.788-.788-1.72-1.182-2.798-1.182h-19.898c-2.238 0-4.125-.766-5.658-2.3-1.534-1.575-2.301-3.462-2.301-5.659v-7.959c0-2.197.767-4.062 2.3-5.596 1.576-1.575 3.462-2.363 5.66-2.363h23.876c2.197 0 4.063.788 5.596 2.363 1.576 1.575 2.363 3.44 2.363 5.596v23.878c0 2.238-.787 4.124-2.363 5.658-1.575 1.534-3.44 2.3-5.596 2.3H736.35M824.895 688.144v-27.857c0-1.078-.394-2.01-1.182-2.798-.788-.788-1.72-1.182-2.798-1.182h-27.857v-7.959h31.837c2.197 0 4.062.788 5.596 2.363 1.575 1.575 2.363 3.44 2.363 5.596v31.837h-7.96M877.623 680.185c1.078 0 2.01-.374 2.798-1.12.788-.787 1.182-1.74 1.182-2.86 0-1.078-.394-2.01-1.182-2.798-.787-.788-1.72-1.182-2.798-1.182h-15.918c-1.119 0-2.072.394-2.86 1.182-.746.788-1.12 1.72-1.12 2.798 0 1.12.374 2.073 1.12 2.86.788.746 1.741 1.12 2.86 1.12h15.918m-19.897 7.959c-2.239 0-4.125-.767-5.659-2.301-1.533-1.575-2.3-3.461-2.3-5.658v-23.878c0-2.197.767-4.062 2.3-5.596 1.576-1.575 3.462-2.363 5.659-2.363h31.836v7.96h-27.857c-1.119 0-2.072.393-2.86 1.18-.746.788-1.12 1.721-1.12 2.799 0 1.12.374 2.073 1.12 2.86.788.746 1.741 1.12 2.86 1.12h19.898c2.197 0 4.062.787 5.596 2.362 1.575 1.575 2.363 3.44 2.363 5.596v7.96c0 2.238-.788 4.124-2.363 5.658-1.575 1.534-3.44 2.3-5.596 2.3h-23.877"/></g></svg>